<?xml version="1.0" encoding="UTF-8"?>
<svg xmlns="http://www.w3.org/2000/svg" xmlns:xlink="http://www.w3.org/1999/xlink" width="20pt" height="20pt" viewBox="0 0 20 20" version="1.1">
<g id="surface1">
<path style=" stroke:none;fill-rule:nonzero;fill:rgb(0%,0%,0%);fill-opacity:1;" d="M 13.191406 0.03125 C 12.058594 0.308594 11.171875 1.285156 10.746094 2.726562 C 10.546875 3.402344 10.457031 4.238281 10.523438 4.847656 C 10.652344 6.046875 11.199219 6.992188 12.007812 7.414062 C 12.46875 7.65625 12.921875 7.695312 13.351562 7.539062 C 13.652344 7.429688 14.054688 7.183594 14.320312 6.949219 C 15.023438 6.328125 15.523438 5.375 15.710938 4.300781 C 15.773438 3.933594 15.789062 3.746094 15.789062 3.335938 C 15.789062 2.550781 15.679688 1.976562 15.445312 1.46875 C 15.085938 0.695312 14.515625 0.191406 13.839844 0.0390625 C 13.65625 0 13.34375 -0.00390625 13.191406 0.03125 Z M 13.191406 0.03125 "/>
<path style=" stroke:none;fill-rule:nonzero;fill:rgb(0%,0%,0%);fill-opacity:1;" d="M 5.96875 0.105469 C 5.34375 0.21875 4.75 0.730469 4.398438 1.46875 C 4.207031 1.867188 4.117188 2.253906 4.078125 2.84375 C 4.058594 3.101562 4.066406 3.515625 4.09375 3.773438 C 4.257812 5.25 4.917969 6.492188 5.917969 7.183594 C 6.117188 7.324219 6.449219 7.496094 6.671875 7.574219 C 6.832031 7.628906 6.875 7.632812 7.050781 7.644531 C 7.285156 7.652344 7.453125 7.628906 7.65625 7.5625 C 7.972656 7.457031 8.234375 7.289062 8.476562 7.039062 C 8.960938 6.535156 9.257812 5.777344 9.328125 4.890625 C 9.359375 4.523438 9.328125 3.976562 9.25 3.550781 C 8.945312 1.816406 7.984375 0.535156 6.71875 0.15625 C 6.464844 0.0820312 6.203125 0.0625 5.96875 0.105469 Z M 5.96875 0.105469 "/>
<path style=" stroke:none;fill-rule:nonzero;fill:rgb(0%,0%,0%);fill-opacity:1;" d="M 17.816406 6.027344 C 16.773438 6.207031 15.863281 6.957031 15.296875 8.105469 C 15.035156 8.636719 14.902344 9.070312 14.800781 9.742188 C 14.765625 9.980469 14.757812 10.074219 14.757812 10.347656 C 14.757812 10.6875 14.777344 10.855469 14.84375 11.125 C 15.023438 11.859375 15.449219 12.453125 15.976562 12.71875 C 16.261719 12.863281 16.523438 12.917969 16.820312 12.890625 C 17.539062 12.824219 18.175781 12.488281 18.746094 11.878906 C 19.371094 11.203125 19.804688 10.273438 19.945312 9.292969 C 19.980469 9.050781 20.003906 8.570312 19.992188 8.375 C 19.9375 7.363281 19.414062 6.476562 18.6875 6.152344 C 18.40625 6.027344 18.097656 5.980469 17.816406 6.027344 Z M 17.816406 6.027344 "/>
<path style=" stroke:none;fill-rule:nonzero;fill:rgb(0%,0%,0%);fill-opacity:1;" d="M 1.640625 6.453125 C 0.960938 6.574219 0.390625 7.066406 0.179688 7.71875 C 0.105469 7.949219 0.0429688 8.277344 0.015625 8.578125 C -0.0820312 9.667969 0.289062 10.898438 0.980469 11.800781 C 1.5 12.476562 2.167969 12.941406 2.917969 13.152344 C 3.546875 13.328125 4.113281 13.160156 4.59375 12.664062 C 5.019531 12.21875 5.234375 11.566406 5.234375 10.710938 C 5.234375 10.378906 5.21875 10.199219 5.164062 9.890625 C 4.972656 8.832031 4.394531 7.816406 3.601562 7.152344 C 3.238281 6.847656 2.746094 6.566406 2.4375 6.488281 C 2.195312 6.425781 1.886719 6.414062 1.640625 6.453125 Z M 1.640625 6.453125 "/>
<path style=" stroke:none;fill-rule:nonzero;fill:rgb(0%,0%,0%);fill-opacity:1;" d="M 9.75 10.414062 C 9.207031 10.476562 8.667969 10.628906 8.140625 10.871094 C 7.328125 11.242188 6.546875 11.859375 6.042969 12.53125 C 4.953125 13.984375 4.199219 15.554688 3.890625 17.003906 C 3.871094 17.09375 3.839844 17.230469 3.820312 17.304688 C 3.714844 17.699219 3.730469 18.148438 3.867188 18.539062 C 4.085938 19.167969 4.558594 19.65625 5.144531 19.863281 C 5.496094 19.984375 6.019531 19.980469 6.601562 19.855469 C 6.980469 19.773438 7.265625 19.679688 8.070312 19.371094 C 9.195312 18.9375 9.503906 18.855469 10.257812 18.78125 C 10.597656 18.75 10.65625 18.746094 10.890625 18.765625 C 11.484375 18.808594 11.957031 18.941406 12.859375 19.328125 C 13.660156 19.664062 14.105469 19.847656 14.21875 19.882812 C 15.34375 20.210938 16.460938 19.804688 16.84375 18.921875 C 17.011719 18.535156 17.03125 17.902344 16.890625 17.304688 C 16.75 16.722656 16.34375 15.777344 15.953125 15.136719 C 14.851562 13.335938 14.066406 12.335938 13.15625 11.570312 C 12.300781 10.855469 11.585938 10.515625 10.703125 10.414062 C 10.453125 10.382812 10.003906 10.382812 9.75 10.414062 Z M 9.75 10.414062 "/>
</g>
</svg>
